<?xml version="1.0"?>
<svg xmlns="http://www.w3.org/2000/svg" height="512px" viewBox="0 0 512 512" width="512px" class=""><g><path d="m512 256c0 141.386719-114.613281 256-256 256s-256-114.613281-256-256 114.613281-256 256-256 256 114.613281 256 256zm0 0" fill="#ff0335" data-original="#FF0335" class="" style="fill:#FE4E00" data-old_color="#FF0335"/><path d="m512 256c0-8.800781-.445312-17.5-1.3125-26.074219l-142.121094-142.117187c-10.839844-12.503906-27.6875-20.558594-46.59375-20.558594-3.390625 0-6.746094.257812-10.050781.769531-13.574219-15.027343-34.167969-24.050781-55.921875-24.050781-21.75 0-42.347656 9.023438-55.921875 24.050781-3.304687-.511719-6.660156-.769531-10.050781-.769531-32.632813 0-59.179688 23.980469-59.179688 53.460938 0 13.886718 5.949219 26.585937 15.660156 36.117187l29.332032 29.269531v26.875c-1.5 15.355469.816406 27.296875.816406 27.296875l.007812.003907c.105469 1.160156.234376 2.484374.382813 3.925781-8.441406 1.929687-14.355469 9.941406-13.398437 18.75l1.511718 13.984375c.445313 4.121094 2.328125 7.753906 5.09375 10.460937l24.746094 24.34375c6.476562 11.667969 13.664062 20.523438 20.980469 27.226563 1.148437 1.25 2.300781 2.4375 3.460937 3.570312h-.082031v25.230469h-4.167969v20.996094h-32.480468c-34.261719 0-62.03125 27.777343-62.03125 62.027343v22.542969c.324218.199219.644531.402344.964843.601563 1.355469.832031 2.714844 1.65625 4.082031 2.464844 38.167969 22.609374 82.699219 35.601562 130.273438 35.601562 141.386719 0 256-114.613281 256-256zm0 0" fill="#901" data-original="#901" class="" style="fill:#FE4E00" data-old_color="#E67F0D"/><path d="m219.359375 342.535156h73.28125v92.453125h-73.28125zm0 0" fill="#ffc473" data-original="#FFC473" class="" style="fill:#FFC473"/><path d="m256 342.535156h36.644531v92.453125h-36.644531zm0 0" fill="#ffaa20" data-original="#FFAA20" class="active-path" style="fill:#EDAD58" data-old_color="#EDAE59"/><path d="m215.1875 367.765625h81.625v23.753906h-81.625zm0 0" fill="#fff7d6" data-original="#FFF7D6" class=""/><path d="m256 367.765625h40.8125v23.753906h-40.8125zm0 0" fill="#ffe670" data-original="#FFE670" class=""/><path d="m391.320312 450.789062v22.5625c-39.261718 24.488282-85.640624 38.648438-135.320312 38.648438s-96.058594-14.160156-135.320312-38.648438v-22.5625c0-34.25 27.769531-62.027343 62.03125-62.027343h146.589843c34.25 0 62.019531 27.777343 62.019531 62.027343zm0 0" fill="#fff" data-original="#FFF" class=""/><path d="m391.320312 450.789062v22.5625c-39.261718 24.488282-85.640624 38.648438-135.320312 38.648438v-123.238281h73.300781c34.25 0 62.019531 27.777343 62.019531 62.027343zm0 0" fill="#fff7d6" data-original="#FFF7D6" class=""/><path d="m334.296875 244.042969c-3.269531-48.125-44.308594-75.4375-78.296875-75.4375s-75.027344 27.3125-78.296875 75.4375c-8.796875 1.648437-15.039063 9.867187-14.058594 18.902343l1.511719 13.984376c1.027344 9.488281 9.632812 16.410156 19.117188 15.382812l1.632812-.179688c19.421875 50.550782 50.757812 63.566407 70.09375 66.523438 19.332031-2.957031 50.671875-15.972656 70.089844-66.523438l1.632812.179688c9.488282 1.027344 18.089844-5.894531 19.117188-15.382812l1.515625-13.984376c.980469-9.035156-5.261719-17.253906-14.058594-18.902343zm0 0" fill="#ffdba9" data-original="#FFDBA9" class=""/><path d="m348.355469 262.949219-1.515625 13.984375c-1.027344 9.480468-9.625 16.40625-19.113282 15.378906l-1.636718-.179688c-19.414063 50.550782-50.757813 63.566407-70.089844 66.523438v-190.046875c33.988281 0 75.027344 27.308594 78.296875 75.433594.636719.121093 1.25.273437 1.855469.464843 7.804687 2.371094 13.113281 10.054688 12.203125 18.441407zm0 0" fill="#ffcf89" data-original="#FFCF89" class=""/><path d="m301.507812 258.546875h-45.507812v53.511719h16.164062v-38.511719h29.34375zm0 0" fill="#ffaa20" data-original="#FFAA20" class="active-path" style="fill:#EDAD58" data-old_color="#EDAE59"/><path d="m203.25 258.546875h39.660156v15h-39.660156zm0 0" fill="#ffc473" data-original="#FFC473" class="" style="fill:#FFC473"/><path d="m257.21875 146.53125c-98.800781 0-80.5625 93.738281-80.5625 93.738281l.003906.003907c.855469 9.300781 3.039063 28.832031 6.996094 38.695312h9.898438v-30.042969c2.28125-9.191406 5.804687-16.496093 9.828124-22.292969 12.628907 4.109376 30.023438 7.632813 52.550782 7.632813 22.5625 0 39.976562-3.535156 52.613281-7.652344 4.027344 5.796875 7.558594 13.109375 9.839844 22.3125v30.042969h9.898437c3.957032-9.863281 6.140625-29.394531 6.996094-38.695312l.003906-.003907s12.632813-93.738281-78.066406-93.738281zm0 0" fill="#8a6746" data-original="#8A6746" class=""/><g fill="#715538"><path d="m335.910156 228.855469c0 6.96875-.597656 11.414062-.597656 11.414062-.859375 9.308594-3.042969 28.835938-6.996094 38.703125h-9.898437v-30.042968c-2.285157-9.203126-5.816407-16.515626-9.84375-22.316407-12.625 4.121094-30.027344 7.648438-52.574219 7.65625v-87.730469c.410156-.007812.828125-.007812 1.246094-.007812 70.9375 0 78.664062 57.339844 78.664062 82.324219zm0 0" data-original="#000000" class="" style="fill:#000000"/><path d="m288.519531 424.296875c0 5.253906-4.261719 9.515625-9.519531 9.515625s-9.519531-4.261719-9.519531-9.515625c0-5.257813 4.261719-9.519531 9.519531-9.519531s9.519531 4.261718 9.519531 9.519531zm0 0" data-original="#000000" class="" style="fill:#000000"/><path d="m288.519531 464.710938c0 5.257812-4.261719 9.519531-9.519531 9.519531s-9.519531-4.261719-9.519531-9.519531c0-5.257813 4.261719-9.519532 9.519531-9.519532s9.519531 4.261719 9.519531 9.519532zm0 0" data-original="#000000" class="" style="fill:#000000"/></g><path d="m321.972656 67.25c-3.390625 0-6.746094.257812-10.050781.769531-13.574219-15.027343-34.167969-24.050781-55.921875-24.050781-21.75 0-42.347656 9.023438-55.921875 24.050781-3.304687-.511719-6.660156-.773437-10.050781-.773437-32.632813 0-59.179688 23.984375-59.179688 53.460937 0 24.972657 19.214844 46.113281 44.992188 51.894531v41.644532h160.320312v-41.644532c25.777344-5.78125 44.996094-26.921874 44.996094-51.894531 0-29.476562-26.550781-53.457031-59.183594-53.457031zm0 0" fill="#fff" data-original="#FFF" class=""/><path d="m381.148438 120.710938c0 24.96875-19.207032 46.109374-44.988282 51.890624v41.648438h-80.160156v-170.28125c21.75 0 42.351562 9.019531 55.921875 24.050781 3.308594-.507812 6.65625-.769531 10.046875-.769531 32.640625 0 59.179688 23.980469 59.179688 53.460938zm0 0" fill="#fff7d6" data-original="#FFF7D6" class=""/></g> </svg>
