<?xml version="1.0"?>
<svg xmlns="http://www.w3.org/2000/svg" height="512px" viewBox="0 0 399 399.332" width="512px" class=""><g><path d="m394.480469 199.664062c0 107.511719-87.15625 194.667969-194.667969 194.667969s-194.667969-87.15625-194.667969-194.667969c0-107.511718 87.15625-194.667968 194.667969-194.667968s194.667969 87.15625 194.667969 194.667968zm0 0" fill="#edf6e3" data-original="#EDF6E3" class="" style="fill:#EDF6E3" data-old_color="#EDF6E3"/><path d="m301.144531 199.664062c0 55.964844-45.367187 101.332032-101.332031 101.332032s-101.332031-45.367188-101.332031-101.332032c0-55.964843 45.367187-101.332031 101.332031-101.332031s101.332031 45.367188 101.332031 101.332031zm0 0" fill="#fff" data-original="#FFF" class="" style="fill:#FFF" data-old_color="#FFFFFF"/><g fill="#3d231a"><path d="m199.8125 0c-104.109375.0195312-190.734375 80.023438-199.015625 183.804688-8.277344 103.777343 64.566406 196.503906 167.355469 213.03125 2.726562.433593 5.289062-1.425782 5.722656-4.152344.433594-2.726563-1.425781-5.289063-4.152344-5.722656-100.632812-16.058594-170.636718-108.710938-158.59375-209.90625 12.046875-101.191407 101.839844-174.824219 203.429688-166.816407 101.59375 8.011719 178.738281 94.804688 174.777344 196.632813-3.960938 101.832031-87.617188 182.367187-189.523438 182.460937-2.761719 0-5 2.238281-5 5s2.238281 5 5 5c109.921875-.492187 198.773438-89.742187 198.773438-199.667969 0-109.921874-88.851563-199.171874-198.773438-199.664062zm0 0" data-original="#000000" class="active-path" style="fill:#000000" data-old_color="#000000"/><path d="m93.476562 199.664062c0 58.726563 47.605469 106.332032 106.328126 106.332032 58.726562 0 106.332031-47.605469 106.335937-106.328125 0-58.726563-47.605469-106.332031-106.328125-106.335938-58.699219.066407-106.269531 47.632813-106.335938 106.332031zm106.335938-96.332031c53.203125 0 96.335938 43.132813 96.335938 96.335938 0 53.207031-43.132813 96.335937-96.339844 96.335937-53.203125 0-96.335938-43.132812-96.332032-96.339844.0625-53.179687 43.15625-96.273437 96.335938-96.332031zm0 0" data-original="#000000" class="active-path" style="fill:#000000" data-old_color="#000000"/><path d="m341.476562 199.664062c0 2.761719 2.238282 5 5 5 2.761719 0 5-2.238281 5-5 .101563-69.507812-47.132812-130.160156-114.550781-147.09375-2.675781-.671874-5.394531.953126-6.066406 3.632813-.675781 2.675781.949219 5.394531 3.628906 6.070313 62.96875 15.8125 107.085938 72.464843 106.988281 137.390624zm0 0" data-original="#000000" class="active-path" style="fill:#000000" data-old_color="#000000"/><path d="m209.539062 58.328125h.347657c2.761719.09375 5.074219-2.070313 5.167969-4.832031.09375-2.761719-2.070313-5.074219-4.832032-5.167969-3.421875-.230469-6.925781-.351563-10.398437-.351563-2.761719 0-5 2.238282-5 5 0 2.761719 2.238281 5 5 5 3.242187.023438 6.515625.132813 9.714843.351563zm0 0" data-original="#000000" class="active-path" style="fill:#000000" data-old_color="#000000"/></g></g> </svg>
